<?xml version="1.0" encoding="utf-8"?>
<!-- Generator: Adobe Illustrator 27.3.1, SVG Export Plug-In . SVG Version: 6.00 Build 0)  -->
<svg version="1.0" id="Layer_1" xmlns="http://www.w3.org/2000/svg" xmlns:xlink="http://www.w3.org/1999/xlink" x="0px" y="0px"
	 viewBox="0 0 200 200" style="enable-background:new 0 0 200 200;" xml:space="preserve">
<style type="text/css">
	.st0{fill:#FFFFFF;}
</style>
<g id="Jd8IT5_00000115486238319576103900000006230727433551440540_">
	<g>
		<path class="st0" d="M142.55,57.11c-4.1,0.73-7.72,2.35-11.14,4.46c-1.73,1.07-3.44,2.15-5.18,3.19
			c-1.89,1.12-3.85,1.33-6.02,0.78c-13.13-3.36-26.28-3.38-39.4-0.02c-2.1,0.54-4.03,0.39-5.87-0.65c-2.3-1.3-4.55-2.69-6.84-4
			c-3.05-1.74-6.23-3.14-9.88-3.71c-1.21,4.8-1.49,9.49,0.24,14.07c0.98,2.6,0.65,4.79-0.96,6.92c-0.15,0.2-0.27,0.42-0.43,0.6
			c-7.06,7.82-7.99,17.15-6.58,27.03c1.03,7.22,3.33,13.89,8.74,19.1c4.78,4.61,10.68,6.93,17.03,8.24c3,0.62,6.06,1,9.09,1.51
			c2.25,0.38,3.81,1.65,4.58,3.8c0.77,2.14,0.51,4.22-1.08,5.85c-1.31,1.34-1.85,2.87-1.91,4.64c-0.13,3.86-2.01,6.2-5.71,7.43
			c-7.35,2.43-14.6,2.95-21.61-0.87c-2.34-1.28-4.38-3.11-6.4-4.58c0.4,4.23,5.59,9.76,10.66,11.12c4.34,1.16,8.67,0.67,12.98-0.17
			c4.26-0.83,6.34,0.41,7.22,4.63c0.41,1.97,0.5,4.03,0.55,6.05c0.06,2.71-0.05,5.42-0.1,8.13c-0.11,6.81-6.76,11.76-13.35,9.51
			c-34.21-11.66-56.59-34.35-63.17-70.57C2.97,92.01,9,66.52,25.99,44.06c11.47-15.15,26.75-25.15,44.87-30.53
			c27.01-8.03,53.2-5.78,77.95,7.97c21.94,12.19,35.83,30.94,42.34,55.1c6.87,25.52,4.48,50.1-8.87,73.14
			c-10.6,18.31-26.47,30.5-46,38.09c-2.51,0.97-5.09,1.9-7.72,2.37c-5.58,1.01-10.14-1.96-11.71-7.43c-1.41-4.9-0.81-9.91-0.6-14.88
			c0.24-5.72,0.81-11.44-0.47-17.12c-0.53-2.34-1.6-4.33-3.32-6.05c-3.37-3.38-2.51-7.82,2.03-9.33c3.95-1.31,8.09-2.04,12.14-3.02
			c6-1.46,11.59-3.73,15.96-8.32c4.79-5.04,7.04-11.27,7.71-18c0.45-4.5,0.47-9.11,0.09-13.62c-0.43-5.09-2.77-9.6-6.23-13.33
			c-2.19-2.37-2.69-4.8-1.75-7.78c1.29-4.07,1.5-8.22,0.6-12.41C142.9,58.32,142.72,57.74,142.55,57.11z M50.07,132.39
			c-7.12-7.97-10.66-17.28-11.68-27.56c-1.11-11.11,0.72-21.6,7.29-30.95c0.43-0.61,0.66-1.62,0.51-2.35
			c-1.3-6.43-0.87-12.75,1.01-18.99c2.07-6.9,4.92-8.59,12.06-7.28c0.12,0.02,0.24,0.06,0.36,0.08c6.65,1.34,12.67,4.23,18.53,7.52
			c0.71,0.4,1.74,0.58,2.53,0.42c12.31-2.58,24.65-2.93,36.99-0.39c2.76,0.57,5.06,0.46,7.36-1.26c1.36-1.02,2.99-1.7,4.55-2.42
			c5.28-2.45,10.67-4.42,16.64-4.15c2.87,0.13,4.91,1.42,6.16,3.96c0.54,1.1,1.03,2.24,1.37,3.42c1.61,5.46,1.95,11.05,1.16,16.65
			c-0.35,2.51,0.02,4.45,1.4,6.64c5.5,8.76,7.17,18.45,6.36,28.68c-1.47,18.64-12.99,33.31-30.7,38.98
			c-1.79,0.57-3.62,1.02-5.53,1.55c3.66,10.99,0.99,22.13,1.43,33.17c0.32-0.04,0.51-0.03,0.67-0.09
			c17.28-5.93,31.69-15.83,41.65-31.37c13.82-21.56,16.26-44.89,8.79-69.1c-7.3-23.65-22.35-40.81-45.38-50.36
			c-15.57-6.46-31.84-7.64-48.36-4.96C65.46,25.44,48.86,34.57,36.4,50.41c-15.55,19.76-20.99,42.33-16.91,67.05
			c2.85,17.26,10.89,31.91,23.83,43.76c0.63,0.57,1.29,1.11,2.13,1.83c-1.3-2.92-2.42-5.52-3.6-8.08
			c-2.31-4.98-6.07-8.78-10.09-12.35c-4.69-4.17-1.67-11,3.01-11.95c2.59-0.52,5.37-0.49,8.01-0.21
			C45.15,130.73,47.47,131.68,50.07,132.39z M75.44,145.48c-5.07-1.69-10.03-3.34-14.9-4.97C63.47,145.79,69.9,148.04,75.44,145.48z
			 M62.63,173.98c-0.01,0.09-0.03,0.19-0.04,0.28c3.26,1.34,6.52,2.68,9.9,4.07c0-1.48,0-2.68,0-3.75
			C69.1,174.37,65.86,174.18,62.63,173.98z"/>
	</g>
</g>
</svg>
