<?xml version="1.0" encoding="utf-8"?>
<!-- Generator: Adobe Illustrator 27.3.1, SVG Export Plug-In . SVG Version: 6.00 Build 0)  -->
<svg version="1.0" id="Layer_1" xmlns="http://www.w3.org/2000/svg" xmlns:xlink="http://www.w3.org/1999/xlink" x="0px" y="0px"
	 viewBox="0 0 200 200" style="enable-background:new 0 0 200 200;" xml:space="preserve">
<style type="text/css">
	.st0{fill:#FFFFFF;}
</style>
<g>
	<path class="st0" d="M99.58,8.9c25.13,0.43,46.54,8.95,64.24,26.3c12.2,11.96,20.2,26.38,24.15,43.01
		c1.16,4.88,1.85,9.83,2.15,14.84c0.3,4.93,0.2,9.86-0.33,14.77c-1.72,15.76-7.18,30.11-16.58,42.87
		c-12.84,17.44-29.83,28.85-50.78,34.34c-5.58,1.46-11.26,2.29-17.02,2.63c-5.32,0.32-10.62,0.18-15.91-0.43
		c-30.79-3.53-57.76-22.61-71.07-50.26c-3.71-7.7-6.27-15.76-7.65-24.19c-1.03-6.28-1.41-12.6-1.05-18.95
		c1.13-19.84,8.03-37.45,20.82-52.65c12.18-14.47,27.5-24.13,45.75-29.11c5.1-1.39,10.29-2.32,15.56-2.73
		C94.57,9.13,97.28,9.03,99.58,8.9z M100.22,20.89c-1.8,0.07-3.34,0.11-4.89,0.2c-5.06,0.27-10.04,1.03-14.94,2.3
		C64.78,27.44,51.57,35.48,40.92,47.6C29.83,60.22,23.55,74.96,22.01,91.69c-0.46,4.94-0.38,9.88,0.14,14.82
		c0.54,5.09,1.55,10.09,3.11,14.97c4.65,14.56,12.87,26.74,24.67,36.44c13.44,11.06,28.92,16.94,46.29,17.85
		c5.34,0.28,10.66-0.03,15.95-0.85c8.04-1.25,15.7-3.68,22.97-7.32c24.77-12.36,41.89-37.34,42.99-66.16
		c0.26-6.91-0.34-13.74-1.93-20.47c-3.4-14.41-10.33-26.89-20.88-37.26C139.98,28.65,121.41,21.25,100.22,20.89z"/>
	<path class="st0" d="M91.06,95.27c0.37,0.16,0.67,0.29,0.97,0.41c5.08,2.19,7.9,6.09,8.66,11.52c0.6,4.33,0,8.47-2.19,12.31
		c-2.83,4.96-7.06,7.94-12.68,8.99c-2.89,0.54-5.81,0.76-8.75,0.77c-9.33,0.01-18.66,0-27.99,0.02c-0.52,0-0.63-0.14-0.63-0.64
		c0.01-20.7,0.01-41.39,0.01-62.09c0-0.18,0-0.36,0-0.61c0.23,0,0.41,0,0.59,0c10,0,20-0.01,29.99,0.01
		c3.65,0.01,7.25,0.44,10.64,1.92c5.27,2.3,8.26,6.33,9.02,12.01c0.33,2.45,0.2,4.89-0.45,7.28c-0.98,3.59-3.3,6.05-6.53,7.75
		C91.53,95.01,91.33,95.13,91.06,95.27z M61.23,101.42c0,5.61,0,11.2,0,16.86c0.2,0,0.38,0,0.56,0c4.98,0,9.97,0.03,14.95-0.02
		c1.39-0.01,2.8-0.13,4.17-0.38c3.18-0.57,5.33-2.37,6.17-5.57c0.34-1.3,0.42-2.63,0.31-3.97c-0.24-3.05-1.81-5.11-4.7-6.15
		c-1.41-0.51-2.88-0.75-4.36-0.76C72.65,101.4,66.97,101.42,61.23,101.42z M61.22,90.88c0.11,0.01,0.17,0.03,0.24,0.03
		c5.43,0,10.86,0.02,16.29-0.03c1.91-0.02,3.76-0.44,5.47-1.36c1.32-0.71,2.16-1.79,2.58-3.22c0.34-1.15,0.39-2.33,0.28-3.52
		c-0.28-2.85-1.75-4.5-4.52-5.19c-2.1-0.52-4.24-0.66-6.39-0.67c-4.46-0.01-8.93,0-13.39,0c-0.18,0-0.36,0.02-0.55,0.02
		C61.22,81.61,61.22,86.22,61.22,90.88z"/>
	<path class="st0" d="M151.4,109.29c-11.5,0-22.92,0-34.4,0c0.01,1.31,0.2,2.55,0.53,3.77c1.41,5.3,5.45,7.26,9.1,7.73
		c2.24,0.29,4.46,0.2,6.6-0.62c2.1-0.81,3.62-2.26,4.71-4.2c0.14-0.25,0.28-0.4,0.6-0.4c3.95,0.01,7.9,0.01,11.85,0.01
		c0.11,0,0.23,0.02,0.37,0.03c-0.15,1.38-0.56,2.66-1.22,3.84c-2.93,5.23-7.21,8.83-13.04,10.36c-6.79,1.78-13.47,1.5-19.87-1.62
		c-3.29-1.6-6.2-3.71-8.29-6.8c-1.78-2.64-2.8-5.59-3.29-8.71c-0.79-4.95-0.79-9.91,0.47-14.78c2.38-9.2,8.38-14.6,17.68-16.28
		c4.73-0.86,9.43-0.51,14,1.05c6.46,2.2,10.52,6.79,12.79,13.09c0.96,2.67,1.3,5.47,1.4,8.29c0.05,1.57,0.04,3.13,0.05,4.7
		C151.43,108.9,151.41,109.06,151.4,109.29z M138.59,101.19c0-0.12,0.01-0.18,0-0.25c-0.06-0.46-0.11-0.93-0.19-1.38
		c-0.7-3.89-2.91-6.5-6.68-7.72c-2.18-0.71-4.42-0.72-6.66-0.25c-2.29,0.47-4.11,1.66-5.47,3.56c-0.97,1.36-1.61,2.87-1.99,4.49
		c-0.12,0.51-0.21,1.02-0.32,1.56C124.42,101.19,131.48,101.19,138.59,101.19z"/>
	<path class="st0" d="M141.01,69.63c0,2.11,0,4.2,0,6.32c-9.24,0-18.45,0-27.7,0c0-2.11,0-4.2,0-6.32
		C122.54,69.63,131.76,69.63,141.01,69.63z"/>
</g>
</svg>
