<?xml version="1.0" encoding="utf-8"?>
<!-- Generator: Adobe Illustrator 27.3.1, SVG Export Plug-In . SVG Version: 6.00 Build 0)  -->
<svg version="1.0" id="Layer_1" xmlns="http://www.w3.org/2000/svg" xmlns:xlink="http://www.w3.org/1999/xlink" x="0px" y="0px"
	 viewBox="0 0 200 200" style="enable-background:new 0 0 200 200;" xml:space="preserve">
<style type="text/css">
	.st0{fill:#FFFFFF;}
</style>
<g id="dIhTcJ_00000073681010700674445120000012992977832077657743_">
	<g>
		<path class="st0" d="M7.06,99.83C7.09,48.64,48.94,6.92,100.14,7.04c50.91,0.12,92.74,41.76,92.69,92.26
			c-0.05,51.89-41.38,93.59-92.72,93.55C48.62,192.82,7.04,151.25,7.06,99.83z M18.34,99.83c0.03,45.31,36.56,81.79,81.86,81.74
			c44.87-0.04,81.37-36.65,81.35-81.58c-0.01-45.25-36.49-81.61-81.94-81.67C55.07,18.26,18.3,55.13,18.34,99.83z"/>
		<path class="st0" d="M104.74,139.74c-5.26,0-10.2,0-15.28,0c0-17.67,0-35.22,0-52.91c4.83,0,9.55,0,14.51,0c0,2.2,0,4.37,0,7.21
			c0.92-1.12,1.34-1.84,1.94-2.31c1.5-1.16,2.96-2.54,4.68-3.23c6.68-2.67,13.47-2.53,20.11,0.18c3.93,1.6,6.5,4.75,7.43,8.78
			c0.92,3.98,1.52,8.1,1.62,12.18c0.23,9.51,0.08,19.02,0.08,28.53c0,0.48-0.08,0.96-0.14,1.55c-5.19,0-10.27,0-15.62,0
			c-0.04-0.84-0.12-1.65-0.12-2.47c-0.03-8.52,0.02-17.03-0.1-25.55c-0.03-2.1-0.39-4.26-1.01-6.27c-1.19-3.84-3.87-5.58-8.06-5.64
			c-4.37-0.07-7.58,1.68-8.73,5.4c-0.82,2.67-1.2,5.55-1.26,8.35c-0.16,7.88-0.06,15.76-0.06,23.63
			C104.74,137.96,104.74,138.73,104.74,139.74z"/>
		<path class="st0" d="M78.45,139.7c-6.04,0-12.03,0-18.2,0c0-17.6,0-35.16,0-52.87c6.06,0,12.05,0,18.2,0
			C78.45,104.43,78.45,121.99,78.45,139.7z"/>
		<path class="st0" d="M69.28,78.6c-5.07-0.03-9.2-4.16-9.2-9.22c0-5.2,4.18-9.37,9.32-9.32c5.08,0.05,9.19,4.17,9.2,9.23
			C78.61,74.48,74.46,78.62,69.28,78.6z"/>
	</g>
</g>
</svg>
