<?xml version="1.0" encoding="utf-8"?>
<!-- Generator: Adobe Illustrator 24.1.2, SVG Export Plug-In . SVG Version: 6.00 Build 0)  -->
<svg version="1.0" id="Layer_1" xmlns="http://www.w3.org/2000/svg" xmlns:xlink="http://www.w3.org/1999/xlink" x="0px" y="0px"
	 viewBox="0 0 40 40" style="enable-background:new 0 0 40 40;" xml:space="preserve">
<style type="text/css">
	.st0{fill:#FFFFFF;}
</style>
<g>
	<path class="st0" d="M7.1,12.4V6.4c0-0.4-0.3-0.8-0.8-0.8S5.6,6,5.6,6.4v6.1c0,0.6-0.4,1.2-0.9,1.5V6.3c0-0.4-0.3-0.8-0.8-0.8
		S3.2,5.9,3.2,6.3v7.6c-0.6-0.3-0.9-0.9-0.9-1.5V6.3c0-0.4-0.3-0.8-0.7-0.8S0.8,5.9,0.8,6.3v6.1c0,1.5,1,2.7,2.4,3.1v17.1
		c0,0.4,0.3,0.8,0.8,0.8s0.8-0.3,0.8-0.8V15.5C6.1,15.2,7.1,13.9,7.1,12.4z"/>
	<path class="st0" d="M38.6,5.7L38.6,5.7c-0.2-0.1-0.5-0.1-0.8,0c-0.1,0.1-2.6,1.6-2.6,6.1v8.8c0,0.4,0.3,0.8,0.8,0.8h1.5v11.3
		c0,0.4,0.3,0.8,0.8,0.8S39,33,39,32.6V6.3C39,6.1,38.9,5.8,38.6,5.7z M37.5,8.4v11.4h-0.7v-8C36.8,10.2,37.1,9.1,37.5,8.4z"/>
	<path class="st0" d="M20,5.7C12.1,5.7,5.7,12.1,5.7,20S12.1,34.3,20,34.3S34.3,27.9,34.3,20S27.9,5.7,20,5.7z M20,32.8
		c-7.1,0-12.8-5.7-12.8-12.8c0-7.1,5.7-12.8,12.8-12.8c7.1,0,12.8,5.7,12.8,12.8C32.8,27.1,27.1,32.8,20,32.8z"/>
	<path class="st0" d="M20,10.6c-5.2,0-9.4,4.2-9.4,9.4s4.2,9.4,9.4,9.4s9.4-4.2,9.4-9.4S25.2,10.6,20,10.6z M20,27.9
		c-4.3,0-7.9-3.5-7.9-7.9c0-4.3,3.5-7.9,7.9-7.9c4.3,0,7.9,3.5,7.9,7.9C27.9,24.3,24.4,27.9,20,27.9z"/>
	<path class="st0" d="M20,12.9c-0.4,0-0.8,0.3-0.8,0.8s0.3,0.8,0.8,0.8c3.1,0,5.6,2.5,5.6,5.6c0,0.4,0.3,0.8,0.8,0.8
		s0.8-0.3,0.8-0.8C27.1,16.1,23.9,12.9,20,12.9z"/>
</g>
</svg>
