<?xml version="1.0" encoding="utf-8"?>
<!-- Generator: Adobe Illustrator 27.3.1, SVG Export Plug-In . SVG Version: 6.00 Build 0)  -->
<svg version="1.0" id="Layer_1" xmlns="http://www.w3.org/2000/svg" xmlns:xlink="http://www.w3.org/1999/xlink" x="0px" y="0px"
	 viewBox="0 0 449.54 57.5" style="enable-background:new 0 0 449.54 57.5;" xml:space="preserve">
<style type="text/css">
	.st0{fill:#FF7600;}
</style>
<g>
	<g>
		<path class="st0" d="M23.08,38.03l-5.61,5.71c-0.87,0.88-2.3,0.88-3.16,0L0.75,29.16c-1.02-1.1-0.99-2.81,0.06-3.87l14.38-14.5
			c0.46-0.46,1.21-0.46,1.67,0.01l6.3,6.46c0.46,0.47,0.44,1.22-0.03,1.67l-8.36,7.9c-0.49,0.46-0.49,1.24,0,1.7l8.29,7.83
			C23.53,36.8,23.54,37.56,23.08,38.03z"/>
	</g>
	<g>
		<path class="st0" d="M435.29,27.43l-9.7-9.38c-0.23-0.22-0.23-0.59,0-0.82l7.27-7.02c0.22-0.22,0.58-0.21,0.8,0.01l15.25,15.57
			c0.82,0.83,0.84,2.16,0.05,3.02l-14.15,15.32c-0.85,0.87-2.25,0.89-3.13,0.04l-5.96-5.8c-0.23-0.22-0.23-0.59,0-0.81l9.57-9.31
			C435.52,28.02,435.52,27.65,435.29,27.43z"/>
	</g>
	<g>
		<path class="st0" d="M328.53,40.26c0-3.11,1.97-5.04,4.98-5.04s4.98,1.92,4.98,5.04c0,3.12-1.97,5.04-4.98,5.04
			S328.53,43.37,328.53,40.26z"/>
		<path class="st0" d="M367.52,43.68v0.83h-12.98v-2.96c-2.44,2.08-5.19,3.48-8.05,3.48c-3.37,0-5.66-1.92-5.66-5.19
			c0-4.78,5.09-7.94,13.71-8.88c0-5.71-2.28-8.57-6.23-8.57c-2.34,0-3.95,0.62-5.71,1.97l-0.26-0.26c3.53-3.95,7.37-6.07,12.56-6.07
			c6.54,0,10.02,3.74,10.02,11.27v14.38H367.52z M354.54,40.83v-9.19c-3.11,0.88-4.31,2.86-4.31,5.61c0,2.44,1.04,3.74,3.11,3.74
			C353.66,40.98,354.08,40.93,354.54,40.83z"/>
		<path class="st0" d="M400.7,30.34c0,9.14-5.04,14.69-12.04,14.69c-2.39,0-4.46-0.73-6.23-1.87v13.5h4.15v0.83h-17.13v-0.83h2.6
			V24.73l-2.96-2.54l13.34-4.67v5.14c2.75-2.8,5.97-4.62,9.03-4.62C396.7,18.04,400.7,22.29,400.7,30.34z M389.59,33.3
			c0-6.96-1.51-10.44-4.98-10.44c-0.78,0-1.45,0.21-2.18,0.52v18.9c0.73,0.52,1.66,0.78,2.54,0.78
			C387.67,43.06,389.59,39.53,389.59,33.3z"/>
		<path class="st0" d="M403.5,43.68h2.6V24.73l-2.96-2.54l13.34-4.67v26.17h2.6v0.83H403.5V43.68z M405.53,10.82
			c0-3.43,2.08-5.76,5.76-5.76c3.69,0,5.76,2.34,5.76,5.76c0,3.48-2.08,5.82-5.76,5.82C407.6,16.63,405.53,14.3,405.53,10.82z"/>
	</g>
	<g>
		<path class="st0" d="M31.58,12.06h4.19l0.34,7.41h0.29c1.34-2.64,3.1-4.63,5.28-5.97c2.18-1.34,4.63-2.01,7.35-2.01
			c2.03,0,3.94,0.4,5.74,1.21v9.13c-2.41-0.84-5.02-1.26-7.81-1.26c-2.87,0-5.07,0.47-6.61,1.41c-1.53,0.94-2.53,2.05-2.99,3.33
			c-0.46,1.28-0.69,2.73-0.69,4.34v0.17v14.7h-5.11V12.06z"/>
		<path class="st0" d="M64.41,42.65c-2.47-1.24-4.39-3.09-5.77-5.54c-1.38-2.45-2.07-5.36-2.07-8.73c0-3.29,0.64-6.17,1.92-8.64
			c1.28-2.47,3.15-4.37,5.6-5.69c2.45-1.32,5.36-1.98,8.73-1.98h14.53c3.02,0,5.66,0.58,7.9,1.75c2.24,1.17,3.97,2.84,5.2,5.03
			c1.22,2.18,1.88,4.84,1.95,7.98l-2.99,3.79H59.33v-4.77h41.59l-2.13,1.44c0-2.34-1.01-4.13-3.04-5.37
			c-2.03-1.24-4.96-1.87-8.79-1.87H72.42c-3.98,0-7,0.71-9.05,2.12c-2.05,1.42-3.07,3.5-3.07,6.26c0,2.76,1.16,4.83,3.48,6.23
			c2.32,1.4,5.72,2.1,10.2,2.1H88.5c2.53,0,4.89-0.24,7.09-0.72c2.2-0.48,4.26-1.14,6.17-1.98v6.09c-1.88,1.26-4.08,2.31-6.61,3.13
			c-2.53,0.82-5.09,1.24-7.7,1.24H72.94C69.72,44.52,66.88,43.89,64.41,42.65z"/>
		<path class="st0" d="M107.83,19.82c1.36-2.49,3.25-4.4,5.69-5.74c2.43-1.34,5.24-2.01,8.41-2.01h14.59c2.53,0,4.89,0.44,7.09,1.32
			c2.2,0.88,4.01,2.07,5.43,3.56l0.06,6.49c-1.42-0.92-3.11-1.66-5.08-2.21c-1.97-0.55-4.07-0.83-6.29-0.83h-14.59
			c-4.1,0-7.3,0.71-9.62,2.13c-2.32,1.42-3.48,3.35-3.48,5.8c0,2.45,1.13,4.38,3.39,5.77c2.26,1.4,5.34,2.1,9.25,2.1h14.59
			c2.26,0,4.42-0.28,6.49-0.83c2.07-0.55,3.91-1.29,5.51-2.21v6.61c-1.49,1.49-3.28,2.66-5.37,3.5c-2.09,0.84-4.43,1.26-7.04,1.26
			h-14.59c-3.33,0-6.25-0.64-8.76-1.92c-2.51-1.28-4.42-3.11-5.74-5.49c-1.32-2.37-1.98-5.25-1.98-8.62
			C105.79,25.2,106.47,22.31,107.83,19.82z"/>
		<path class="st0" d="M161.25,42.65c-2.47-1.24-4.39-3.09-5.77-5.54c-1.38-2.45-2.07-5.36-2.07-8.73c0-3.29,0.64-6.17,1.92-8.64
			c1.28-2.47,3.15-4.37,5.6-5.69c2.45-1.32,5.36-1.98,8.73-1.98h14.53c3.02,0,5.66,0.58,7.9,1.75c2.24,1.17,3.97,2.84,5.2,5.03
			c1.23,2.18,1.88,4.84,1.95,7.98l-2.99,3.79h-40.09v-4.77h41.59l-2.13,1.44c0-2.34-1.01-4.13-3.04-5.37
			c-2.03-1.24-4.96-1.87-8.79-1.87h-14.53c-3.98,0-7,0.71-9.05,2.12c-2.05,1.42-3.07,3.5-3.07,6.26c0,2.76,1.16,4.83,3.48,6.23
			c2.32,1.4,5.71,2.1,10.2,2.1h14.53c2.53,0,4.89-0.24,7.09-0.72c2.2-0.48,4.26-1.14,6.17-1.98v6.09c-1.88,1.26-4.08,2.31-6.61,3.13
			c-2.53,0.82-5.09,1.24-7.7,1.24h-14.53C166.56,44.52,163.72,43.89,161.25,42.65z"/>
		<path class="st0" d="M210.5,7.07c-0.73,0.73-1.7,1.09-2.93,1.09c-1.26,0-2.26-0.36-2.99-1.09c-0.73-0.73-1.09-1.74-1.09-3.04
			c0-1.26,0.36-2.25,1.09-2.96c0.73-0.71,1.7-1.06,2.93-1.06c1.22,0,2.21,0.35,2.96,1.06c0.75,0.71,1.12,1.69,1.12,2.96
			C211.59,5.32,211.23,6.34,210.5,7.07z M204.93,12.06h5.28v32.45h-5.28V12.06z"/>
		<path class="st0" d="M224.98,17.29h-11.89v-3.68c2.41-0.27,4.55-0.91,6.4-1.92c1.86-1.01,3.44-2.34,4.74-3.96
			c1.3-1.63,2.3-3.53,2.99-5.72h2.81v10.05h12.23v5.23h-12.23v27.23h-5.06V17.29z"/>
		<path class="st0" d="M243.85,19.76c1.17-2.49,2.83-4.39,5-5.71c2.16-1.32,4.7-1.98,7.61-1.98h14.59c2.83,0,5.31,0.59,7.44,1.78
			c2.13,1.19,3.67,2.83,4.62,4.94h0.34l0.75-6.72h4.02v19.99l0.46,12.46h-4.94l-0.17-7.07h-0.34c-1.11,2.34-2.76,4.1-4.94,5.28
			c-2.18,1.19-4.77,1.78-7.75,1.78h-14.59c-2.83,0-5.3-0.63-7.41-1.9c-2.11-1.26-3.7-3.08-4.8-5.46c-1.09-2.37-1.64-5.23-1.64-8.56
			C242.09,25.2,242.68,22.25,243.85,19.76z M249.39,33.66c1.99,1.3,4.81,1.95,8.44,1.95l14.59,0.06c3.56,0,6.35-0.65,8.36-1.95
			c2.01-1.3,3.02-3.12,3.02-5.46c0-2.3-1.01-4.1-3.02-5.4c-2.01-1.3-4.8-1.95-8.36-1.95h-14.59c-3.64,0-6.45,0.64-8.44,1.92
			c-1.99,1.28-2.99,3.09-2.99,5.43C246.4,30.56,247.4,32.36,249.39,33.66z"/>
		<path class="st0" d="M300.68,43.83c-2.53-0.84-4.73-2.05-6.61-3.62v-6.84c2.26,1.07,4.57,1.89,6.92,2.44
			c2.35,0.56,4.78,0.83,7.27,0.83c3.1,0,5.51-0.25,7.24-0.75c1.72-0.5,2.58-1.19,2.58-2.07c0-0.46-0.35-0.87-1.06-1.24
			c-0.71-0.36-1.71-0.7-3.02-1.01c-1.3-0.31-3.01-0.65-5.11-1.03l-1.03-0.06l-1.26-0.29c-2.95-0.42-5.27-0.89-6.95-1.41
			c-1.69-0.52-3.07-1.34-4.16-2.47c-1.09-1.13-1.64-2.75-1.64-4.85c0-1.88,0.51-3.57,1.52-5.08c1.01-1.51,2.51-2.71,4.48-3.59
			c1.97-0.88,4.32-1.32,7.04-1.32c2.56,0,5.08,0.39,7.55,1.18c2.47,0.79,4.59,1.91,6.35,3.36v6.55c-1.69-0.77-3.76-1.4-6.23-1.9
			c-2.47-0.5-4.95-0.75-7.44-0.75c-2.72,0-4.86,0.22-6.43,0.66c-1.57,0.44-2.36,1.06-2.36,1.87c0,0.5,0.38,0.94,1.15,1.32
			c0.77,0.38,1.8,0.73,3.1,1.03c1.3,0.31,2.95,0.63,4.94,0.98l0.69,0.17l1.03,0.17c3.33,0.54,5.88,1.06,7.64,1.58
			c1.76,0.52,3.16,1.32,4.19,2.41c1.03,1.09,1.55,2.61,1.55,4.57c0,2.07-0.56,3.89-1.67,5.46c-1.11,1.57-2.72,2.79-4.82,3.65
			c-2.11,0.86-4.6,1.29-7.47,1.29C305.87,45.09,303.21,44.67,300.68,43.83z"/>
	</g>
</g>
</svg>
