<?xml version="1.0" encoding="utf-8"?>
<!-- Generator: Adobe Illustrator 24.1.2, SVG Export Plug-In . SVG Version: 6.00 Build 0)  -->
<svg version="1.0" id="Layer_1" xmlns="http://www.w3.org/2000/svg" xmlns:xlink="http://www.w3.org/1999/xlink" x="0px" y="0px"
	 viewBox="0 0 40 40" style="enable-background:new 0 0 40 40;" xml:space="preserve">
<style type="text/css">
	.st0{fill:#FFFFFF;}
</style>
<g>
	<path class="st0" d="M37.7,17.3h-2.5l-0.1-0.4c-0.1-0.3-0.2-0.7-0.3-1c-0.2-0.7-0.3-1.3-0.6-1.9c-1.2-3.1-3.1-5.6-5.6-7.5
		c-3-2.3-6.3-3.4-10.2-3.4c-2.6,0-5.2,0.6-7.7,1.9C6,7.7,3.1,11.7,2,17c0,0.3-0.1,0.6-0.1,1c0,0.3-0.1,0.6-0.1,1v1.9
		c0.1,0.2,0.1,0.4,0.1,0.5c0.1,0.8,0.2,1.6,0.4,2.4c1.9,8.7,10.7,14.5,19.5,12.8c3.8-0.7,7-2.5,9.5-5.4c0.7-0.7,1.2-1.4,1.7-2.2
		l0.3-0.5c0.3-0.5,0.2-1-0.2-1.3c-0.3-0.3-0.9-0.5-1.4-0.1c-0.2,0.2-0.4,0.5-0.6,0.8c-3.3,5.2-9.5,7.8-15.4,6.6
		c-4-0.8-7.1-2.9-9.2-6.2c-2.8-4.2-3.3-8.7-1.5-13.3C6.8,9.8,10.6,6.5,16,5.5c2.6-0.5,5.1-0.3,7.6,0.6c4,1.6,6.8,4.3,8.5,8.1
		c0.2,0.4,0.3,0.8,0.4,1.2c0.1,0.4,0.2,0.8,0.4,1.2l0.3,0.7h-2.9c-0.3,0-0.4,0.1-0.5,0.2c-0.1,0.1,0,0.2,0.2,0.5
		c1.1,1.3,2.4,2.8,3.7,4.4c0.3,0.3,0.4,0.3,0.4,0.3s0.1,0,0.4-0.3c0.6-0.7,1.2-1.5,1.8-2.2c0.6-0.7,1.2-1.4,1.8-2.2
		c0.2-0.3,0.2-0.4,0.1-0.5C38.1,17.4,38,17.3,37.7,17.3z"/>
	<path class="st0" d="M17.7,8.3v9c0,0.5-0.2,0.7-0.4,1c-0.8,0.8-1,1.9-0.4,2.9c0.5,0.8,1.7,1.2,2.6,0.9l0.1,0h0.1
		c0.2,0,0.5,0,0.8,0.2c1.5,1,3.2,2,4.9,2.9l0.1,0.1c0.1,0,0.3,0.1,0.4,0.2c0.2,0.1,0.5,0,0.8-0.1c0.3-0.2,0.5-0.4,0.6-0.7
		c0.1-0.5-0.1-0.9-0.7-1.2c-0.9-0.5-1.7-1-2.5-1.4c-0.8-0.5-1.7-0.9-2.5-1.4c-0.4-0.2-0.7-0.5-0.7-1c-0.1-0.5-0.3-0.8-0.6-1.1
		c-0.3-0.3-0.5-0.5-0.5-1v-4.6c0-1.5,0-3.1,0.1-4.7c0-0.3-0.1-0.6-0.4-0.8C19.1,7,18.8,7,18.4,7.1C17.9,7.2,17.7,7.6,17.7,8.3z
		 M20.3,20c0,1-0.7,1.7-1.7,1.7c-1,0-1.7-0.9-1.7-1.7c0-1,0.7-1.7,1.7-1.7C19.6,18.3,20.3,19.2,20.3,20z"/>
</g>
</svg>
