<?xml version="1.0" encoding="utf-8"?>
<!-- Generator: Adobe Illustrator 24.1.2, SVG Export Plug-In . SVG Version: 6.00 Build 0)  -->
<svg version="1.1" id="Layer_1" xmlns="http://www.w3.org/2000/svg" xmlns:xlink="http://www.w3.org/1999/xlink" x="0px" y="0px"
	 viewBox="0 0 31.9 32" style="enable-background:new 0 0 31.9 32;" xml:space="preserve">
<style type="text/css">
	.st0{fill:#FFAE00;}
	.st1{fill:#FC4B3C;}
</style>
<path class="st0" d="M31.9,5.4v21.1c0,3-2.4,5.4-5.4,5.4h-21c-3,0-5.4-2.4-5.4-5.4V5.4C0,2.4,2.4,0,5.4,0h21
	C29.4,0,31.9,2.4,31.9,5.4z"/>
<g>
	<path class="st1" d="M6.9,13.2h0.6l0.1,1.1h0c0.2-0.4,0.5-0.7,0.8-0.9c0.3-0.2,0.7-0.3,1.1-0.3c0.3,0,0.6,0.1,0.9,0.2v1.4
		c-0.4-0.1-0.8-0.2-1.2-0.2c-0.4,0-0.8,0.1-1,0.2c-0.2,0.1-0.4,0.3-0.5,0.5c-0.1,0.2-0.1,0.4-0.1,0.7v0v2.3H6.9V13.2z"/>
	<g>
		<path class="st1" d="M5.6,17.2l-0.9,0.9c-0.1,0.1-0.4,0.1-0.5,0l-2.1-2.3c-0.2-0.2-0.2-0.4,0-0.6L4.4,13c0.1-0.1,0.2-0.1,0.3,0
			l1,1c0.1,0.1,0.1,0.2,0,0.3l-1.3,1.2c-0.1,0.1-0.1,0.2,0,0.3l1.3,1.2C5.7,17,5.7,17.1,5.6,17.2z"/>
	</g>
	<g>
		<path class="st1" d="M27.6,15.6l-1.5-1.5c0,0,0-0.1,0-0.1l1.1-1.1c0,0,0.1,0,0.1,0l2.4,2.4c0.1,0.1,0.1,0.3,0,0.5l-2.2,2.4
			c-0.1,0.1-0.3,0.1-0.5,0l-0.9-0.9c0,0,0-0.1,0-0.1l1.5-1.4C27.6,15.7,27.6,15.6,27.6,15.6z"/>
	</g>
	<g>
		<path class="st1" d="M11.1,17.5c0-0.5,0.3-0.8,0.8-0.8s0.8,0.3,0.8,0.8c0,0.5-0.3,0.8-0.8,0.8S11.1,18,11.1,17.5z"/>
		<path class="st1" d="M17.1,18.1v0.1h-2v-0.5c-0.4,0.3-0.8,0.5-1.2,0.5c-0.5,0-0.9-0.3-0.9-0.8c0-0.7,0.8-1.2,2.1-1.4
			c0-0.9-0.4-1.3-1-1.3c-0.4,0-0.6,0.1-0.9,0.3l0,0c0.5-0.6,1.1-0.9,1.9-0.9c1,0,1.6,0.6,1.6,1.7v2.2H17.1z M15.1,17.6v-1.4
			c-0.5,0.1-0.7,0.4-0.7,0.9c0,0.4,0.2,0.6,0.5,0.6C15,17.7,15,17.6,15.1,17.6z"/>
		<path class="st1" d="M22.3,16c0,1.4-0.8,2.3-1.9,2.3c-0.4,0-0.7-0.1-1-0.3v2.1h0.6v0.1h-2.7v-0.1h0.4v-4.9l-0.5-0.4l2.1-0.7v0.8
			c0.4-0.4,0.9-0.7,1.4-0.7C21.6,14.1,22.3,14.8,22.3,16z M20.5,16.5c0-1.1-0.2-1.6-0.8-1.6c-0.1,0-0.2,0-0.3,0.1v2.9
			c0.1,0.1,0.3,0.1,0.4,0.1C20.2,18,20.5,17.4,20.5,16.5z"/>
		<path class="st1" d="M22.7,18.1h0.4v-2.9l-0.5-0.4l2.1-0.7v4h0.4v0.1h-2.4V18.1z M23,13c0-0.5,0.3-0.9,0.9-0.9
			c0.6,0,0.9,0.4,0.9,0.9c0,0.5-0.3,0.9-0.9,0.9C23.3,13.9,23,13.5,23,13z"/>
	</g>
</g>
</svg>
